Coordinates
version=1
nRows=32
nColumns=22
inDegrees=yes

Units are S.I. units (second, meters, Newtons, ...)
If the header above contains a line with 'inDegrees', this indicates whether rotational values are in degrees (yes) or radians (no).

endheader
time	pelvis_tilt	pelvis_list	pelvis_rotation	pelvis_tx	pelvis_ty	pelvis_tz	hip_flexion_r	hip_adduction_r	hip_rotation_r	knee_angle_r	ankle_angle_r	subtalar_angle_r	hip_flexion_l	hip_adduction_l	hip_rotation_l	knee_angle_l	ankle_angle_l	subtalar_angle_l	lumbar_extension	lumbar_bending	lumbar_rotation
      1.96000000	      1.86361518	     -1.48048213	    -63.72447292	     -0.06987477	      0.92002117	      0.19499993	     26.36181528	      2.31976280	     -5.27840342	    -62.48966847	     -1.03404321	     -0.42679749	     -1.66405060	     -4.98734308	    -21.67921426	    -18.90757849	     10.59021275	      3.28090631	    -11.15146343	     -4.92643235	     -8.41535937
      1.97000000	      1.59953092	     -1.51454063	    -63.85042130	     -0.06502820	      0.91969763	      0.19966724	     26.89422272	      2.38958497	     -6.52247957	    -60.32683876	     -0.68491004	     -0.43351433	     -2.12550569	     -5.07021796	    -21.89055450	    -18.74932476	     10.88627468	      3.39127439	    -11.21097141	     -4.58913696	     -9.00951373
      1.98000000	      1.30438052	     -1.50752046	    -63.94902469	     -0.06036126	      0.91914616	      0.20435244	     27.39780995	      2.46772230	     -7.75531129	    -57.98932806	     -0.43620338	     -0.43130360	     -2.48660971	     -5.19188925	    -22.06984699	    -18.67053086	     11.22983734	      3.52062555	    -11.22879790	     -4.24451779	     -9.58043043
      1.99000000	      1.00379735	     -1.46489102	    -64.05236274	     -0.05586541	      0.91840409	      0.20917118	     27.84866226	      2.55153467	     -8.94915374	    -55.48233580	     -0.27878724	     -0.41170687	     -2.79401422	     -5.32223455	    -22.24530318	    -18.63808893	     11.61172534	      3.65108020	    -11.20529786	     -3.92256549	    -10.10573791
      2.00000000	      0.72637816	     -1.40264631	    -64.18209637	     -0.05149060	      0.91753678	      0.21421092	     28.20879996	      2.63909192	    -10.06894605	    -52.80270529	     -0.18202277	     -0.38766235	     -3.10632993	     -5.43004342	    -22.45017783	    -18.61039444	     12.00461935	      3.76789595	    -11.15840758	     -3.64101759	    -10.56456847
      2.01000000	      0.50227631	     -1.34259887	    -64.36768220	     -0.04719228	      0.91661932	      0.21957144	     28.43686609	      2.73276492	    -11.07907448	    -49.95201124	     -0.13798974	     -0.37828298	     -3.49521834	     -5.48000135	    -22.70480301	    -18.53657759	     12.38701101	      3.86604752	    -11.10982362	     -3.41766797	    -10.93767080
      2.02000000	      0.35106874	     -1.30146036	    -64.62515962	     -0.04294125	      0.91570121	      0.22532141	     28.50715774	      2.83177048	    -11.96951647	    -46.93841063	     -0.12855369	     -0.38864601	     -4.00902012	     -5.44930675	    -23.02341075	    -18.38264246	     12.73835634	      3.93723233	    -11.07650513	     -3.26843371	    -11.20903125
      2.03000000	      0.27291310	     -1.27645312	    -64.95237556	     -0.03872519	      0.91478398	      0.23146275	     28.42680643	      2.94149345	    -12.72984964	    -43.76983024	     -0.14248834	     -0.41088343	     -4.64515754	     -5.33182622	    -23.40620735	    -18.14386620	     13.04128997	      3.97591524	    -11.05370186	     -3.19165345	    -11.38043881
      2.04000000	      0.25442091	     -1.27480346	    -65.33528363	     -0.03454454	      0.91386249	      0.23796646	     28.20349279	      3.06838609	    -13.39006915	    -40.45978006	     -0.17601693	     -0.44324953	     -5.39707861	     -5.14144654	    -23.82465428	    -17.82459344	     13.30254309	      4.00378957	    -11.04535647	     -3.17079528	    -11.46421982
      2.05000000	      0.26172578	     -1.26356662	    -65.73355115	     -0.03041014	      0.91286132	      0.24472712	     27.89892870	      3.21691841	    -13.96896442	    -37.02516859	     -0.21908391	     -0.46676545	     -6.17946183	     -4.90936722	    -24.24533680	    -17.47265171	     13.52814284	      4.02407362	    -11.01386185	     -3.17981846	    -11.49742776
      2.06000000	      0.27668497	     -1.24367966	    -66.10888977	     -0.02635252	      0.91176127	      0.25166371	     27.53229088	      3.38795047	    -14.50029790	    -33.48645397	     -0.25474684	     -0.47559507	     -6.95933496	     -4.66732991	    -24.62811112	    -17.11723421	     13.74577978	      4.06090532	    -10.96592438	     -3.20043920	    -11.52130876
      2.07000000	      0.26739196	     -1.18727659	    -66.43868843	     -0.02239431	      0.91050660	      0.25870963	     27.15837981	      3.58884530	    -14.99598746	    -29.86905513	     -0.29074472	     -0.45918566	     -7.66646421	     -4.45297412	    -24.96941685	    -16.80502114	     13.94374498	      4.10338710	    -10.86474732	     -3.20948164	    -11.54696440
      2.08000000	      0.25688921	     -1.10970636	    -66.70331842	     -0.01853529	      0.90912898	      0.26582780	     26.76907370	      3.78814624	    -15.47122114	    -26.22315937	     -0.28236320	     -0.41257722	     -8.31886894	     -4.25730946	    -25.23853823	    -16.54247526	     14.14717849	      4.18255789	    -10.74801824	     -3.22282798	    -11.60240672
      2.09000000	      0.24535869	     -1.00431827	    -66.90300709	     -0.01478264	      0.90762534	      0.27301808	     26.38934144	      3.97571836	    -15.91368210	    -22.60708985	     -0.21428784	     -0.32159044	     -8.90845534	     -4.08428735	    -25.44213334	    -16.33475916	     14.33888276	      4.30241196	    -10.60878933	     -3.24853468	    -11.68712471
      2.10000000	      0.22673713	     -0.86200111	    -67.04405929	     -0.01106460	      0.90600410	      0.28030386	     26.04298639	      4.14057691	    -16.32720166	    -19.08281698	     -0.11752676	     -0.17933070	     -9.42981619	     -3.93356050	    -25.60395511	    -16.17926834	     14.50386358	      4.43805447	    -10.42355628	     -3.26802924	    -11.79158764
      2.11000000	      0.22367658	     -0.69742861	    -67.13431797	     -0.00738212	      0.90430952	      0.28769677	     25.72868987	      4.25734048	    -16.71079389	    -15.73814183	      0.02785015	      0.02622727	     -9.91383317	     -3.78689249	    -25.70986826	    -16.06496627	     14.63628386	      4.59993071	    -10.22080877	     -3.30417034	    -11.91745882
      2.12000000	      0.24202011	     -0.52463094	    -67.17739736	     -0.00369954	      0.90258432	      0.29523300	     25.44508558	      4.31310163	    -17.08082241	    -12.66076551	      0.23343069	      0.30615623	    -10.38564567	     -3.64251953	    -25.76004777	    -15.98059728	     14.72148165	      4.79435570	    -10.01274297	     -3.35387557	    -12.06326762
      2.13000000	      0.28191904	     -0.35677111	    -67.17822729	      0.00002805	      0.90086371	      0.30292186	     25.20256712	      4.29700133	    -17.46719646	     -9.95894230	      0.50418670	      0.66844754	    -10.85781419	     -3.50409597	    -25.75096978	    -15.93348275	     14.74466546	      5.02442094	     -9.81041782	     -3.40489499	    -12.20999731
      2.14000000	      0.34022236	     -0.17833424	    -67.13659209	      0.00379366	      0.89915514	      0.31075251	     25.04690973	      4.19258583	    -17.90673238	     -7.74455381	      0.75875520	      1.02288811	    -11.31504070	     -3.36695552	    -25.66339051	    -15.91298707	     14.71537397	      5.23038370	     -9.59859899	     -3.46328480	    -12.38571781
      2.15000000	      0.42271653	     -0.00393684	    -67.04985489	      0.00765352	      0.89749998	      0.31873170	     24.98392069	      3.98074514	    -18.41089498	     -6.12787719	      1.02390658	      1.32175928	    -11.77763280	     -3.22889620	    -25.48542585	    -15.91390913	     14.62421916	      5.40784638	     -9.39277420	     -3.51750545	    -12.59705727
      2.16000000	      0.51316454	      0.12981375	    -66.93520309	      0.01158835	      0.89594489	      0.32688896	     24.99353670	      3.68696159	    -18.97065114	     -5.17507289	      1.32965113	      1.56804058	    -12.27144066	     -3.12340070	    -25.23584554	    -15.95590655	     14.46775980	      5.57889463	     -9.22489223	     -3.54154490	    -12.80278829
      2.17000000	      0.61388473	      0.22304841	    -66.79656837	      0.01558927	      0.89451035	      0.33523708	     25.07912662	      3.30150124	    -19.55152922	     -4.92007171	      1.62299897	      1.68108002	    -12.79438599	     -3.04875019	    -24.90696955	    -16.04377330	     14.23813474	      5.71332720	     -9.09404574	     -3.53865942	    -12.99704592
      2.18000000	      0.71191103	      0.26246652	    -66.63125244	      0.01969509	      0.89321556	      0.34383211	     25.20718512	      2.84054494	    -20.11703981	     -5.31370557	      1.88192547	      1.65658269	    -13.37584881	     -3.01501329	    -24.49630856	    -16.13743063	     13.94805644	      5.84623450	     -8.99999388	     -3.48319352	    -13.23111349
      2.19000000	      0.80795504	      0.25434933	    -66.45452667	      0.02386014	      0.89205341	      0.35269989	     25.36067171	      2.32138977	    -20.62696396	     -6.26887299	      2.06708797	      1.44335335	    -13.99817042	     -3.02258709	    -24.01809931	    -16.26603995	     13.58414988	      5.96231223	     -8.93466766	     -3.38842696	    -13.45757398
      2.20000000	      0.88981535	      0.20609154	    -66.28232761	      0.02800827	      0.89101137	      0.36188460	     25.50944896	      1.79422791	    -21.02750400	     -7.62706088	      2.11598534	      0.87890785	    -14.64451226	     -3.08211029	    -23.48283886	    -16.44412504	     13.18091259	      6.08918995	     -8.87948058	     -3.25516080	    -13.66786672
      2.21000000	      0.92310532	      0.09941812	    -66.13417492	      0.03208894	      0.89012393	      0.37146542	     25.60811897	      1.33787206	    -21.35872590	     -9.22677998	      2.06030911	      0.40674327	    -15.30985384	     -3.23888607	    -22.96482002	    -16.70050277	     12.65912865	      6.14161813	     -8.82728569	     -3.05076378	    -13.81585917
      2.22000000	      0.88512206	     -0.05849241	    -66.03328887	      0.03603957	      0.88940351	      0.38146719	     25.63957088	      1.01714629	    -21.65503225	    -10.89821768	      1.80457371	     -0.32648026	    -15.98682315	     -3.50232882	    -22.51058362	    -17.01546576	     12.10149837	      6.19928845	     -8.75451528	     -2.75638763	    -13.93640578
      2.23000000	      0.75547377	     -0.26807177	    -65.97488441	      0.03978226	      0.88890766	      0.39185968	     25.58454194	      0.87554380	    -21.97748764	    -12.50153841	      1.38382313	     -0.99502972	    -16.62332122	     -3.90582861	    -22.10614733	    -17.46377146	     11.41606458	      6.22656182	     -8.66058720	     -2.36695086	    -13.97592912
      2.24000000	      0.51713745	     -0.51415658	    -65.97893034	      0.04324318	      0.88866355	      0.40261143	     25.44705167	      0.95152692	    -22.32511308	    -13.92785261	      0.77725196	     -1.70940708	    -17.17576888	     -4.45477816	    -21.75465993	    -18.07835439	     10.59079584	      6.23199524	     -8.52328093	     -1.87777813	    -13.94325762
      2.25000000	      0.18419746	     -0.78843206	    -66.08042350	      0.04635501	      0.88868386	      0.41368556	     25.24971446	      1.24192088	    -22.66144050	    -15.18234036	      0.07112295	     -2.56662455	    -17.64492681	     -5.12082682	    -21.53229401	    -18.84784751	      9.66480251	      6.24732407	     -8.35277528	     -1.31613764	    -13.81527733
      2.26000000	     -0.22819305	     -1.05034417	    -66.26798824	      0.04907738	      0.88898472	      0.42495539	     25.00902392	      1.72236922	    -22.90959040	    -16.20931302	     -0.69214907	     -3.44714991	    -17.94316190	     -5.87909826	    -21.34412917	    -19.84818243	      8.51596890	      6.26135941	     -8.13235138	     -0.71729172	    -13.60698842
      2.27000000	     -0.69281449	     -1.28974491	    -66.54889751	      0.05138995	      0.88956708	      0.43634994	     24.72743022	      2.36155461	    -23.00395289	    -17.02774897	     -1.41412094	     -4.33360080	    -18.05610138	     -6.69543929	    -21.16775382	    -21.09186613	      7.14035833	      6.29120178	     -7.87564943	     -0.11681243	    -13.32479371
